name analog
datacolumns 19
datarows 29
range 0.216 0.23
endheader
time	ground_force_vx	ground_force_vy	ground_force_vz	ground_force_px	ground_force_py	ground_force_pz	l_ground_force_vx	l_ground_force_vy	l_ground_force_vz	l_ground_force_px	l_ground_force_py	l_ground_force_pz	ground_torque_x	ground_torque_y	ground_torque_z	l_ground_torque_x	l_ground_torque_y	l_ground_torque_z
0.216	-0.0	-0.0	-0.0	0.0300971716642379	4.649816036224365	-598.3506469726562	0.1922140419483184	-8.184505462646484	-133.60879516601562	-0.0	-0.0	-0.0	-0.0	-0.0	-0.0	40653.02734375	11485.1220703125	-1470.3194580078125
0.2165	-0.0	-0.0	-0.0	0.0150699540972709	5.00515079498291	-601.5847778320312	0.7537843585014343	-8.272741317749023	-130.00100708007812	-0.0	-0.0	-0.0	-0.0	-0.0	-0.0	39379.14453125	11340.6845703125	-1371.0645751953125
0.217	-0.0	-0.0	-0.0	0.0589929074048996	4.590936183929443	-605.70361328125	0.9605630040168762	-7.801882743835449	-127.15122985839844	-0.0	-0.0	-0.0	-0.0	-0.0	-0.0	38195.83203125	10818.3193359375	-1133.49853515625
0.2175	-0.0	-0.0	-0.0	-0.727156400680542	5.169563293457031	-610.3548583984375	0.8722168803215027	-7.595664978027344	-124.3590850830078	-0.0	-0.0	-0.0	-0.0	-0.0	-0.0	37213.98828125	10347.83984375	-1009.8864135742188
0.218	-0.0	-0.0	-0.0	-0.6851669549942017	5.108924388885498	-612.5341796875	1.4492056369781494	-7.375253200531006	-120.05255126953124	-0.0	-0.0	-0.0	-0.0	-0.0	-0.0	36022.11328125	10368.5029296875	-851.3875122070312
0.2185	-0.0	-0.0	-0.0	-1.4425803422927856	5.482550144195557	-618.8233032226562	1.670549750328064	-6.889091491699219	-115.74576568603516	-0.0	-0.0	-0.0	-0.0	-0.0	-0.0	34825.5625	9904.5146484375	-579.1810913085938
0.219	-0.0	-0.0	-0.0	-1.5623317956924438	5.212981700897217	-623.1814575195312	2.187782049179077	-6.757232189178467	-111.96456909179688	-0.0	-0.0	-0.0	-0.0	-0.0	-0.0	33638.515625	9351.279296875	-588.4273681640625
0.2195	-0.0	-0.0	-0.0	-1.4120889902114868	5.337482929229736	-626.8846435546875	2.42523455619812	-6.067111015319824	-107.24866485595705	-0.0	-0.0	-0.0	-0.0	-0.0	-0.0	32606.830078125	9217.443359375	-326.12066650390625
0.22	-0.0	-0.0	-0.0	-1.2029998302459717	6.4020867347717285	-632.01025390625	2.8973395824432373	-6.182518005371094	-102.82837677001952	-0.0	-0.0	-0.0	-0.0	-0.0	-0.0	31136.60546875	8815.5673828125	-281.592041015625
0.2205	-0.0	-0.0	-0.0	-0.7348730564117432	6.933916091918945	-635.9554443359375	3.282299041748047	-5.57743501663208	-98.58695220947266	-0.0	-0.0	-0.0	-0.0	-0.0	-0.0	29822.173828125	8660.0849609375	79.8133773803711
0.221	-0.0	-0.0	-0.0	-1.295127511024475	7.781956672668457	-640.9481811523438	3.8427329063415527	-5.357484817504883	-94.56051635742188	-0.0	-0.0	-0.0	-0.0	-0.0	-0.0	28159.84765625	8032.9619140625	130.85337829589844
0.2215	-0.0	-0.0	-0.0	-0.5661018490791321	8.080055236816406	-645.3687133789062	4.0958571434021	-4.8727874755859375	-88.4039077758789	-0.0	-0.0	-0.0	-0.0	-0.0	-0.0	27069.263671875	7734.75146484375	456.0208740234375
0.222	-0.0	-0.0	-0.0	-0.4460525512695312	8.320015907287598	-648.1464233398438	4.732071399688721	-4.57759428024292	-85.54214477539062	-0.0	-0.0	-0.0	-0.0	-0.0	-0.0	25666.396484375	7293.96044921875	738.7210693359375
0.2225	-0.0	-0.0	-0.0	-0.10093554854393	8.761977195739746	-655.2415771484375	5.041276454925537	-3.739854097366333	-79.67724609375	-0.0	-0.0	-0.0	-0.0	-0.0	-0.0	24307.072265625	7076.95556640625	818.851318359375
0.223	-0.0	-0.0	-0.0	0.5042167901992798	8.986660957336426	-658.6651000976562	5.398968696594238	-3.563262224197388	-74.898681640625	-0.0	-0.0	-0.0	-0.0	-0.0	-0.0	22841.66796875	6714.6240234375	1045.31884765625
0.2235	-0.0	-0.0	-0.0	0.6203122138977051	8.60316276550293	-661.7811279296875	5.665294170379639	-3.267902374267578	-69.67408752441406	-0.0	-0.0	-0.0	-0.0	-0.0	-0.0	21203.244140625	6069.9443359375	1056.7919921875
0.224	-0.0	-0.0	-0.0	0.1784210205078125	8.529735565185547	-665.682373046875	6.313807487487793	-2.53078031539917	-66.4595718383789	-0.0	-0.0	-0.0	-0.0	-0.0	-0.0	19848.90234375	5932.60986328125	1244.6070556640625
0.2245	-0.0	-0.0	-0.0	0.4883960783481598	9.307348251342772	-670.5470581054688	6.3257246017456055	-2.5766243934631348	-60.94742584228516	-0.0	-0.0	-0.0	-0.0	-0.0	-0.0	18707.501953125	5330.05419921875	1240.618896484375
0.225	-0.0	-0.0	-0.0	0.1361940205097198	8.917792320251465	-671.2467041015625	6.063136577606201	-1.666460633277893	-55.92487716674805	-0.0	-0.0	-0.0	-0.0	-0.0	-0.0	17307.84375	5061.4208984375	1284.5926513671875
0.2255	-0.0	-0.0	-0.0	-0.0735104978084564	8.865982055664062	-676.5684204101562	5.723811149597168	-1.6781120300292969	-51.38605880737305	-0.0	-0.0	-0.0	-0.0	-0.0	-0.0	16283.4853515625	4662.0966796875	1452.019287109375
0.226	-0.0	-0.0	-0.0	-0.5195373296737671	8.289127349853516	-679.0201416015625	6.121044158935547	-1.4090808629989624	-47.09067153930664	-0.0	-0.0	-0.0	-0.0	-0.0	-0.0	14672.748046875	3833.299072265625	1412.3544921875
0.2265	-0.0	-0.0	-0.0	-1.395838975906372	7.728216171264648	-682.6755981445312	6.251952648162842	-1.0864362716674805	-42.61348342895508	-0.0	-0.0	-0.0	-0.0	-0.0	-0.0	13689.916015625	3730.51953125	1565.9954833984375
0.227	-0.0	-0.0	-0.0	-1.9152209758758545	7.885238170623779	-686.9127807617188	6.267379760742188	-0.5189827680587769	-38.878177642822266	-0.0	-0.0	-0.0	-0.0	-0.0	-0.0	12094.6025390625	3217.06640625	1738.91162109375
0.2275	-0.0	-0.0	-0.0	-2.41873550415039	7.35614538192749	-688.888916015625	6.387176513671875	-0.0310057997703552	-33.824981689453125	-0.0	-0.0	-0.0	-0.0	-0.0	-0.0	10658.0419921875	2989.736572265625	1597.5562744140625
0.228	-0.0	-0.0	-0.0	-2.8229997158050537	6.538227558135986	-693.3941040039062	6.449606895446777	0.1455650925636291	-28.895570755004883	-0.0	-0.0	-0.0	-0.0	-0.0	-0.0	9651.005859375	2478.645263671875	1922.3485107421875
0.2285	-0.0	-0.0	-0.0	-3.080878734588623	6.385602951049805	-696.9883422851562	6.856856346130371	0.1401983499526977	-24.68693733215332	-0.0	-0.0	-0.0	-0.0	-0.0	-0.0	7900.77685546875	2171.6328125	2001.13916015625
0.229	-0.0	-0.0	-0.0	-3.861478328704834	6.296395301818848	-703.1181640625	-0.0	-0.0	-0.0	-0.0	-0.0	-0.0	-0.0	-0.0	-0.0	-0.0	-0.0	-0.0
0.2295	-0.0	-0.0	-0.0	-4.16094970703125	5.8639235496521	-707.0924072265625	-0.0	-0.0	-0.0	-0.0	-0.0	-0.0	-0.0	-0.0	-0.0	-0.0	-0.0	-0.0
0.23	-0.0	-0.0	-0.0	-4.387325763702393	6.165994167327881	-710.6976318359375	-0.0	-0.0	-0.0	-0.0	-0.0	-0.0	-0.0	-0.0	-0.0	-0.0	-0.0	-0.0
